<svg id="i_logo_m1" xmlns="http://www.w3.org/2000/svg" xmlns:xlink="http://www.w3.org/1999/xlink" width="81.264" height="117.466" viewBox="0 0 81.264 117.466">
  <defs>
    <clipPath id="clip-path">
      <rect id="Rectangle_17" data-name="Rectangle 17" width="81.264" height="117.466" fill="#fff"/>
    </clipPath>
  </defs>
  <rect id="Rectangle_16" data-name="Rectangle 16" width="9.337" height="9.337" transform="translate(22.981 55.06)" fill="#fff"/>
  <path id="Path_5557" data-name="Path 5557" d="M115.508,111.8l-10.208,4.57.425.949-.425.949,10.208,4.57.953-2.13-7.571-3.39,7.571-3.39Z" transform="translate(-54.127 -57.469)" fill="#fff"/>
  <g id="Group_26" data-name="Group 26">
    <g id="Group_25" data-name="Group 25" clip-path="url(#clip-path)">
      <path id="Path_5558" data-name="Path 5558" d="M74.778,152.444a.177.177,0,0,1,.14-.284h9.875a.177.177,0,0,1,.141.284l-1.517,1.985c.017,0,.032,0,.048,0,.063,0,.127,0,.191,0a4.3,4.3,0,0,1,.5.051l1.268-1.659a.8.8,0,0,0-.635-1.284H74.918a.8.8,0,0,0-.635,1.284l1.319,1.727a4.413,4.413,0,0,1,.68-.134Z" transform="translate(-38.099 -77.895)" fill="#fff"/>
      <path id="Path_5559" data-name="Path 5559" d="M17.687,110.755a4.617,4.617,0,0,1,.5-.083V100.657H21a1.594,1.594,0,0,0,1.432.9H40.177a1.6,1.6,0,0,0,1.308-.686.938.938,0,0,0,.9.669h6.063a.939.939,0,0,0,.911-.716,1.594,1.594,0,0,0,1.34.733H68.438a1.6,1.6,0,0,0,1.433-.9h2.763V113.2a8.546,8.546,0,0,1,2.669-.815V83.742a11.835,11.835,0,0,0,8.133-11.267V64.292a3.282,3.282,0,0,0-3.278-3.278H62.97a3.282,3.282,0,0,0-3.278,3.278v3.322H30.856V64.292a3.282,3.282,0,0,0-3.278-3.278H10.39a3.282,3.282,0,0,0-3.278,3.278v8.182A11.95,11.95,0,0,0,15.48,83.816v28.061a4.588,4.588,0,0,1,2.207-1.123m.5-10.72V83.083c.269.02.539.034.814.034a10.673,10.673,0,0,0,1.831-.161V99.963c0,.025.006.048.007.072Zm22.961-.072a.977.977,0,0,1-.975.976H22.433a.977.977,0,0,1-.975-.976V82.829a10.576,10.576,0,0,0,3.566-1.585H40.177a.977.977,0,0,1,.975.976Zm28.261,0a.977.977,0,0,1-.976.976H50.695a.977.977,0,0,1-.976-.976V82.219a.977.977,0,0,1,.976-.976H65.566a10.579,10.579,0,0,0,3.847,1.65Zm3.22.072H70.028c0-.024.007-.047.007-.072V83a10.658,10.658,0,0,0,1.55.114c.354,0,.7-.018,1.049-.052ZM62.4,64.3a.589.589,0,0,1,.589-.589H80.178a.589.589,0,0,1,.589.589v8.182a9.188,9.188,0,0,1-7.891,9.08h-.242V81.6A9.145,9.145,0,0,1,62.4,72.485ZM29.638,70.315H60.952v2.17a10.614,10.614,0,0,0,3.8,8.137H50.695a1.6,1.6,0,0,0-1.6,1.6V93.878a.937.937,0,0,0-.653-.266H42.381a.934.934,0,0,0-.607.227V82.219a1.6,1.6,0,0,0-1.6-1.6H25.839a10.613,10.613,0,0,0,3.8-8.137ZM9.823,72.485V64.3a.589.589,0,0,1,.589-.589H27.6a.589.589,0,0,1,.589.589v8.182a9.182,9.182,0,1,1-18.364,0" transform="translate(-3.656 -31.363)" fill="#fff"/>
      <path id="Path_5560" data-name="Path 5560" d="M76.741,26.728A14.638,14.638,0,1,1,80.588,6.387a14.655,14.655,0,0,1-3.847,20.341M61.788,4.8a11.9,11.9,0,1,0,16.54,3.128A11.916,11.916,0,0,0,61.788,4.8" transform="translate(-27.685 0)" fill="#fff"/>
      <path id="Path_5561" data-name="Path 5561" d="M81.651,15.918a.42.42,0,0,0-.567-.086l-5.808,3.961a.421.421,0,0,0-.111.585L76.68,22.6a.421.421,0,0,0,.585.111l2.708-1.847A4.948,4.948,0,1,1,75.3,16.236a.421.421,0,0,0,.436-.342l.5-2.633a.421.421,0,0,0-.372-.5,8.449,8.449,0,1,0,6.152,3.648c-.105-.155-.222-.312-.367-.494" transform="translate(-34.227 -6.54)" fill="#fff"/>
      <path id="Path_5562" data-name="Path 5562" d="M19.011,181.333a1.753,1.753,0,0,1-.313,1.415,1.957,1.957,0,0,1-1.161.747,1.823,1.823,0,0,1-1.336-.2,1.7,1.7,0,0,1-.836-1.2l-1.144-5.727c-.584,2.237-.857,3.357-1.364,5.6a1.932,1.932,0,0,1-1.41,1.577,1.775,1.775,0,0,1-1.932-.653c-1.421-1.647-2.149-2.461-3.638-4.065.6,2.243.9,3.365,1.5,5.608a1.619,1.619,0,0,1-.278,1.452,2.4,2.4,0,0,1-1.179.837,1.7,1.7,0,0,1-1.286-.073,1.539,1.539,0,0,1-.842-1.013C2.318,180.7,1.582,178.232.111,173.3a2.134,2.134,0,0,1,.155-1.728,2.091,2.091,0,0,1,1.194-.944,3.351,3.351,0,0,1,1.48-.167,1.719,1.719,0,0,1,1.161.587c1.538,1.8,3.621,4.266,6.119,7.479.792-3.9,1.243-5.855,2.255-9.752a2.362,2.362,0,0,1,1.956-1.743,2.068,2.068,0,0,1,1.51.177,1.846,1.846,0,0,1,.9,1.374c.869,5.1,1.3,7.649,2.173,12.749" transform="translate(0 -85.826)" fill="#fff"/>
      <path id="Path_5563" data-name="Path 5563" d="M45.363,178.816a1.865,1.865,0,0,1-.383,1.5,2.077,2.077,0,0,1-1.275.738,1.792,1.792,0,0,1-1.326-.292,1.87,1.87,0,0,1-.81-1.324c-.776-5.084-1.164-7.626-1.941-12.711a1.833,1.833,0,0,1,.46-1.593,2.443,2.443,0,0,1,1.446-.72,2.073,2.073,0,0,1,1.479.284,1.757,1.757,0,0,1,.781,1.348c.628,5.109.942,7.663,1.569,12.771" transform="translate(-20.356 -84.497)" fill="#fff"/>
      <path id="Path_5564" data-name="Path 5564" d="M68.189,175.787a2.163,2.163,0,0,1-.577,1.616,2.071,2.071,0,0,1-1.439.592,2.156,2.156,0,0,1-1.852-.927c-2.476-3.332-3.792-4.966-6.572-8.146.232,3.012.348,4.518.58,7.53a1.956,1.956,0,0,1-.482,1.542,1.932,1.932,0,0,1-1.254.621,1.652,1.652,0,0,1-1.277-.408,1.963,1.963,0,0,1-.673-1.356l-1.322-12.537a2.207,2.207,0,0,1,.473-1.722,2.078,2.078,0,0,1,1.426-.717,2.358,2.358,0,0,1,2.147.772c2.946,3.348,4.34,5.068,6.96,8.579-.1-3.3-.149-4.947-.247-8.246a1.563,1.563,0,0,1,.59-1.327,2.32,2.32,0,0,1,1.436-.465,2.3,2.3,0,0,1,1.428.39,1.551,1.551,0,0,1,.632,1.3c.009,5.162.014,7.743.022,12.905" transform="translate(-27.4 -82.854)" fill="#fff"/>
      <path id="Path_5565" data-name="Path 5565" d="M92.39,176.227a1.817,1.817,0,0,1-.624,1.4,2,2,0,0,1-1.373.474,1.831,1.831,0,0,1-1.252-.548,1.939,1.939,0,0,1-.575-1.462c.08-5.153.119-7.73.2-12.884a1.784,1.784,0,0,1,.714-1.476,2.362,2.362,0,0,1,1.537-.424,2.115,2.115,0,0,1,1.4.571,1.819,1.819,0,0,1,.544,1.479c-.229,5.148-.344,7.722-.573,12.87" transform="translate(-45.525 -82.915)" fill="#fff"/>
      <path id="Path_5566" data-name="Path 5566" d="M114.577,178.409a2.085,2.085,0,0,1-.837,1.475,2.034,2.034,0,0,1-1.519.3,2.248,2.248,0,0,1-1.673-1.277c-1.888-3.766-2.914-5.631-5.123-9.306-.271,3.008-.406,4.512-.677,7.52a1.9,1.9,0,0,1-.729,1.421,1.875,1.875,0,0,1-1.336.364,1.706,1.706,0,0,1-1.188-.653,2.028,2.028,0,0,1-.436-1.466c.311-5.036.467-7.554.777-12.592a2.146,2.146,0,0,1,.75-1.6,2.016,2.016,0,0,1,1.521-.425,2.44,2.44,0,0,1,1.984,1.181c2.344,3.872,3.431,5.838,5.433,9.808.45-3.264.674-4.9,1.123-8.159a1.505,1.505,0,0,1,.8-1.189,2.286,2.286,0,0,1,1.493-.174,2.385,2.385,0,0,1,1.346.666,1.6,1.6,0,0,1,.407,1.408l-2.118,12.7" transform="translate(-51.944 -83.354)" fill="#fff"/>
      <path id="Path_5567" data-name="Path 5567" d="M147.646,187.283a1.641,1.641,0,0,1-.842,1.077,1.579,1.579,0,0,1-1.234.09,1.86,1.86,0,0,1-1.33-1.7,5.764,5.764,0,0,1-3.882.12,6.817,6.817,0,0,1-4.478-3.742,9.553,9.553,0,0,1-.735-6.067,7.887,7.887,0,0,1,3.61-5.769,7.326,7.326,0,0,1,5.909-.567c3.284.945,5.261,2.743,5.882,5.191a2.351,2.351,0,0,1,0,1.287,2.019,2.019,0,0,1-.889,1.169,1.458,1.458,0,0,1-1.28.2,2.268,2.268,0,0,1-1.5-1.5,4.44,4.44,0,0,0-3.161-3.015,3.173,3.173,0,0,0-2.861.541,5.174,5.174,0,0,0-1.916,3.263,5.919,5.919,0,0,0,.222,3.6,3.468,3.468,0,0,0,2.346,2.075,4.055,4.055,0,0,0,2.154,0,2.96,2.96,0,0,0,1.707-1.1c-.942-.3-1.414-.447-2.36-.727a1.412,1.412,0,0,1-.921-.819,1.962,1.962,0,0,1-.109-1.276,1.871,1.871,0,0,1,.634-1.065,1.306,1.306,0,0,1,1.244-.229c1.618.48,2.424.734,4.029,1.273a1.918,1.918,0,0,1,1.281,1.017,3.1,3.1,0,0,1-.106,1.937l-1.407,4.719" transform="translate(-69.371 -87.574)" fill="#fff"/>
      <path id="Path_5568" data-name="Path 5568" d="M84.066,217.533a1.924,1.924,0,0,1-.422,1.208,1.406,1.406,0,0,1-1.262.442,45.887,45.887,0,0,0-8.712-.1,2.006,2.006,0,0,1-2.424-2.206c-.174-4.3-.258-6.357-.419-10.318-.056-1.373.734-2.173,2.374-2.326a55.429,55.429,0,0,1,9.6-.191,1.622,1.622,0,0,1,1.192.547,1.468,1.468,0,0,1,.343,1.056,1.487,1.487,0,0,1-.462,1.045,1.549,1.549,0,0,1-1.225.39,53.562,53.562,0,0,0-7.249-.018c-.583.032-.869.3-.86.806.011.607.017.913.028,1.527a51.781,51.781,0,0,1,7.121-.047,1.428,1.428,0,0,1,1.094.553,1.746,1.746,0,0,1,.386,1.168,1.664,1.664,0,0,1-.423,1.1,1.431,1.431,0,0,1-1.2.445,49.665,49.665,0,0,0-6.925,0c.015.793.022,1.193.037,2a.769.769,0,0,0,.915.848,48.2,48.2,0,0,1,6.985.159,1.491,1.491,0,0,1,1.123.634,1.988,1.988,0,0,1,.377,1.278" transform="translate(-36.406 -104.818)" fill="#fff"/>
      <path id="Path_5569" data-name="Path 5569" d="M118.442,211.077a1.635,1.635,0,0,1-.682.925,1.339,1.339,0,0,1-1.2.146c-1.512-.5-2.272-.721-3.8-1.13l-2.2,9.569a1.748,1.748,0,0,1-2.218,1.443,1.655,1.655,0,0,1-1.041-.772,2.042,2.042,0,0,1-.24-1.5l1.729-9.681c-1.518-.315-2.28-.452-3.808-.684a1.485,1.485,0,0,1-1.062-.682,1.733,1.733,0,0,1-.272-1.169,1.653,1.653,0,0,1,.535-1.081,1.376,1.376,0,0,1,1.182-.322,68.627,68.627,0,0,1,12.083,2.874,1.429,1.429,0,0,1,.938.825,1.844,1.844,0,0,1,.062,1.242" transform="translate(-53.269 -105.949)" fill="#fff"/>
      <path id="Path_5570" data-name="Path 5570" d="M50.1,211.264a4.7,4.7,0,0,0-1.6-3.164,4.338,4.338,0,0,0-3.847-.9,62.275,62.275,0,0,0-7.537,1.9,3.309,3.309,0,0,0-1.77,1.2,2.108,2.108,0,0,0-.335,1.925L38.2,222.774a1.5,1.5,0,0,0,.828.993,1.681,1.681,0,0,0,1.243.059,2.1,2.1,0,0,0,1.086-.765,1.593,1.593,0,0,0,.265-1.379l-.843-3.4a55.07,55.07,0,0,1,5.353-1.3,4.65,4.65,0,0,0,3.155-2.217,5.322,5.322,0,0,0,.819-3.494m-6.15-1.026c.23-.849.765-1.337,1.5-1.153.831.208.656,2.882-.554,2.553-.734-.2-1.155-.637-.949-1.4m-2.518-.1c.11-.8.724-1.881,1.514-1.715.746.157.666,2.182-.029,2.488-.846.373-1.593.009-1.485-.773m-1.54,2.817c-.492.365-.906-.428-.906-1.144s.3-1.45.906-1.45.931.58.931,1.3-.438.932-.931,1.3m2.8,3.473c-2.507.329-2.622-1.522-1.968-2.827s.711-2.2,2.1-2.2a2.547,2.547,0,0,1,2.379,2.412c.192,1.1,0,2.291-2.507,2.62m4.509-3.268c-.15.648-.666,1.074-1.248.771a1.171,1.171,0,0,1-.406-1.407c.343-.562.65-.927,1.17-.8s.634.783.484,1.432" transform="translate(-17.948 -106.451)" fill="#fff"/>
    </g>
  </g>
</svg>
