<svg xmlns="http://www.w3.org/2000/svg" xmlns:xlink="http://www.w3.org/1999/xlink" width="490.159" height="149.826" viewBox="0 0 490.159 149.826">
  <defs>
    <clipPath id="clip-path">
      <rect id="Rectangle_26" data-name="Rectangle 26" width="490.159" height="149.826" fill="#fff"/>
    </clipPath>
  </defs>
  <g id="i_logo_m2" transform="translate(0 0)" style="isolation: isolate">
    <rect id="Rectangle_22" data-name="Rectangle 22" width="13.457" height="13.458" transform="matrix(0.988, -0.157, 0.157, 0.988, 169.325, 50.979)" fill="#fff"/>
    <rect id="Rectangle_23" data-name="Rectangle 23" width="13.457" height="13.458" transform="matrix(0.988, -0.157, 0.157, 0.988, 209.556, 44.598)" fill="#fff"/>
    <g id="Group_30" data-name="Group 30" transform="translate(0 0)">
      <g id="Group_29" data-name="Group 29" clip-path="url(#clip-path)">
        <path id="Path_5571" data-name="Path 5571" d="M132.028,58.473a1.152,1.152,0,0,0,1.807-.287L139.4,47.875a1.151,1.151,0,0,0-1.192-1.686l-14.057,2.23a1.151,1.151,0,0,0-.613,1.971Zm-7.938-8.993a.248.248,0,0,1,.2-.176l14.057-2.23a.255.255,0,0,1,.264.375l-5.57,10.311a.254.254,0,0,1-.4.064l-8.489-8.083a.25.25,0,0,1-.067-.261" transform="translate(69.067 25.89)" fill="#fff"/>
        <path id="Path_5572" data-name="Path 5572" d="M199.336,79.091l-6.613-41.684a19.611,19.611,0,0,0,8.76-19.605L199.637,6.154A7.292,7.292,0,0,0,191.289.091L166.822,3.972a7.3,7.3,0,0,0-6.063,8.348l.346,2.19-35.971,5.706-.348-2.19a7.292,7.292,0,0,0-8.348-6.063L91.97,15.844a7.306,7.306,0,0,0-6.062,8.348L87.756,35.84A19.819,19.819,0,0,0,102.51,51.863L109.1,93.4a9.756,9.756,0,0,0,11.162,8.106l70.971-11.257a9.766,9.766,0,0,0,8.1-11.16M186.05,60.559c0-.036,0-.069-.006-.1L182.212,36.3a15.307,15.307,0,0,0,2.235-.17c.5-.08,1-.186,1.48-.312l3.833,24.158ZM113.021,47.02a15.207,15.207,0,0,0,4.715-3.05l21.577-3.423a1.409,1.409,0,0,1,1.609,1.169l4.008,25.26a1.408,1.408,0,0,1-1.169,1.609L118.5,72.592a1.408,1.408,0,0,1-1.609-1.169ZM145.244,57.66a1.341,1.341,0,0,0-.812.473l-2.625-16.556a2.307,2.307,0,0,0-2.634-1.913L118.756,42.9a15.294,15.294,0,0,0,3.576-12.442l-.49-3.09L166.42,20.3l.49,3.09a15.3,15.3,0,0,0,7.249,10.725L154.145,37.29a2.3,2.3,0,0,0-1.913,2.634l2.633,16.6a1.349,1.349,0,0,0-.991-.233Zm7.872-17.876a1.407,1.407,0,0,1,1.169-1.609l21.175-3.359a15.252,15.252,0,0,0,5.845,1.48l3.853,24.3a1.407,1.407,0,0,1-1.167,1.609l-25.26,4.006a1.407,1.407,0,0,1-1.609-1.167Zm32.817-6.16-.343.055.008.053a13.448,13.448,0,0,1-1.478.329,13.251,13.251,0,0,1-15.145-11l-1.848-11.649a.847.847,0,0,1,.705-.969L192.3,6.563a.85.85,0,0,1,.971.7l1.848,11.649a13.243,13.243,0,0,1-9.185,14.708m-65.666-2.836a13.234,13.234,0,1,1-26.142,4.147L92.278,23.285a.848.848,0,0,1,.7-.969l24.467-3.881a.85.85,0,0,1,.971.705ZM109.6,48a15.389,15.389,0,0,0,2.567-.654l3.842,24.22c.006.036.02.067.027.1l-3.774.6-3.83-24.141c.389-.031.777-.062,1.167-.125m6.8,24.517a2.3,2.3,0,0,0,2.243.963l25.26-4.006a2.3,2.3,0,0,0,1.717-1.288,1.339,1.339,0,0,0,1.417.765l8.631-1.369a1.335,1.335,0,0,0,1.114-1.252,2.293,2.293,0,0,0,2.093.768l25.26-4.006a2.3,2.3,0,0,0,1.834-1.609l3.934-.624L192.969,80.2a3.309,3.309,0,0,1-2.747,3.783L119.251,95.244a3.31,3.31,0,0,1-3.783-2.747L112.4,73.148Z" transform="translate(48.117 0.001)" fill="#fff"/>
        <path id="Path_5573" data-name="Path 5573" d="M6.371,40.2C7.425,50.178,8.084,57.064,8.327,60.66c.229,3.387.379,8.582.446,15.438.066,6.873.217,12.116.451,15.585A2.816,2.816,0,0,0,9.9,93.508a2.478,2.478,0,0,0,1.854.61c.183,0,.365-.008.545-.02l19.042-1.289a2.781,2.781,0,0,0,2.037-.933,2.919,2.919,0,0,0,.606-2.154c-.209-3.1-.621-7.778-1.227-13.907-.467-4.723-.819-8.582-1.05-11.516,1.887,2.956,4.379,7.014,7.435,12.114C42.913,82.77,46,87.694,48.309,91.059c.719,1.024,2.177,1.4,4.7,1.233a15.866,15.866,0,0,0,2.542-.25A3.439,3.439,0,0,0,57.7,89.948q3.54-8.638,7.075-17.325c2.511-6.141,4.053-9.761,5-11.882.159,3.05.3,7.1.41,12.1.144,6.344.326,11.189.543,14.4a2.688,2.688,0,0,0,3.093,2.7L94,88.57a3.027,3.027,0,0,0,2.016-.818,2.589,2.589,0,0,0,.695-2.084c-.231-3.415-.755-8.606-1.561-15.427C94.352,63.46,93.829,58.3,93.6,54.89c-.251-3.688-.467-9.283-.643-16.629-.176-7.412-.392-13.043-.643-16.738A2.191,2.191,0,0,0,91.2,19.7a3.458,3.458,0,0,0-2-.357c-.983.067-2.478.25-4.443.542-1.9.282-3.324.459-4.247.52-1.152.078-2.834.145-5,.2-2.216.056-3.916.123-5.05.2-1.255.084-2.279,1-3.025,2.689C60.908,37.112,55.856,47.556,52.415,54.536a21.69,21.69,0,0,1-1.614,2.9,8.3,8.3,0,0,1-1.834-2.163L30.255,26.094c-1.007-1.5-1.915-2.492-3.02-2.411-2.077.139-5.25.409-9.43.8-4.064.385-7.214.654-9.363.8-1.593.108-2.542.445-3.076,1.094A1.85,1.85,0,0,0,4.961,27.8l.109.787c.649,5.094,1.085,8.988,1.3,11.605" transform="translate(2.773 10.839)" fill="#fff"/>
        <path id="Path_5574" data-name="Path 5574" d="M70.169,89.1a2.894,2.894,0,0,0,2.094,1.423,60.882,60.882,0,0,0,9.157.407,73.032,73.032,0,0,0,8.49-.393A4.64,4.64,0,0,0,91.6,90.2a2.381,2.381,0,0,0,1.078-2.29c0-3.749-.094-9.322-.287-17.04C92.2,63.392,92.1,57.68,92.1,53.892c0-3.37.184-8.521.548-15.309.367-6.811.554-12.008.554-15.448a2.316,2.316,0,0,0-2.634-2.3c-1.008,0-2.463.048-4.446.147-1.881.094-3.334.142-4.322.142s-2.478-.048-4.42-.144c-2.046-.1-3.532-.145-4.54-.145a2.178,2.178,0,0,0-2.346,2.3c0,3.465.112,8.654.337,15.421s.332,11.936.332,15.335c0,4.077-.29,12.632-.86,25.43-.332,7.131-.4,8.245-.418,8.392l.777.1h-.791v.012l0,1.261Z" transform="translate(39.178 11.683)" fill="#fff"/>
        <path id="Path_5575" data-name="Path 5575" d="M230.176,22.448c-1.773-.212-4.5-.459-8.1-.732-3.535-.268-6.224-.512-7.991-.723a1.952,1.952,0,0,0-1.484.407,3.248,3.248,0,0,0-1.018,2.318c-.357,3.323-.724,8.365-1.091,14.986-.365,6.591-.726,11.574-1.072,14.814-.08.732-.158,1.283-.228,1.7-.053-.081-.111-.172-.169-.27-2.577-4.579-4.428-7.931-5.665-10.252L189.389,18.749c-.9-1.651-1.573-2.333-2.414-2.435a21.049,21.049,0,0,0-3.788,0c-2.144.164-3.064.2-3.446.187-2.489-.052-4.595-.178-6.255-.376a3.176,3.176,0,0,0-2.457.488,2.065,2.065,0,0,0-.769,1.436c-.385,3.585-.826,9.029-1.308,16.18s-.924,12.57-1.3,16.13c-.367,3.4-1.072,8.521-2.1,15.22-1.039,6.762-1.75,11.9-2.112,15.284a2.456,2.456,0,0,0,2.219,2.975l15.334,1.84a2.273,2.273,0,0,0,1.75-.457,3.018,3.018,0,0,0,1.008-2.143c.392-3.641.871-9,1.465-16.381.481-6,.9-10.812,1.256-14.363,3,5.206,5.311,9.281,6.876,12.137,6.285,11.221,10.386,18.58,12.2,21.882.537.958,1.4,2.247,2.68,2.4.719.086,1.843.284,3.335.587,1.579.321,2.734.523,3.538.62q1.082.131,3.276.295,2.121.164,3.17.287a3.215,3.215,0,0,0,.417.027,2.351,2.351,0,0,0,1.511-.495,2.466,2.466,0,0,0,.88-1.746l3.312-30.894c.385-3.594,1.107-8.98,2.143-16.006,1.036-7.043,1.76-12.445,2.148-16.053v0c.265-2.485-1.292-2.865-1.774-2.923" transform="translate(91.623 9.015)" fill="#fff"/>
        <path id="Path_5576" data-name="Path 5576" d="M230.759,88.223a4.415,4.415,0,0,0,1.625-.348A2.4,2.4,0,0,0,233.4,85.62c0-3.688-.087-9.177-.268-16.779-.178-7.395-.267-13.021-.267-16.721,0-3.337.17-8.409.51-15.081.342-6.72.515-11.838.515-15.209a2.262,2.262,0,0,0-2.538-2.285c-.938,0-2.294.047-4.15.144-1.739.094-3.089.14-4.014.14s-2.31-.047-4.108-.14c-1.912-.1-3.3-.144-4.233-.144a2.136,2.136,0,0,0-2.272,2.285c0,3.39.106,8.5.314,15.184s.311,11.757.311,15.106c0,4.008-.268,12.436-.8,25.046-.312,7.028-.378,8.122-.39,8.267l.762.094H212v.012l0,1.263.287.006a2.8,2.8,0,0,0,1.993,1.4,53.693,53.693,0,0,0,8.554.4,64.527,64.527,0,0,0,7.922-.387" transform="translate(118.867 10.959)" fill="#fff"/>
        <path id="Path_5577" data-name="Path 5577" d="M230.61,85.865a2.437,2.437,0,0,0,2.539,2.708h15.432c1.185,0,2.449-.762,2.449-2.9,0-3.661-.1-9.043-.289-16.451-.161-6.024-.256-10.87-.282-14.449,3.551,4.837,6.279,8.61,8.126,11.243,7.451,10.414,12.312,17.238,14.452,20.289.638.891,1.639,2.076,2.931,2.076.727,0,1.865.062,3.379.186,1.609.131,2.781.194,3.58.194q1.089,0,3.287-.1,2.126-.091,3.179-.092a2.37,2.37,0,0,0,2.539-2.521V54.96c0-3.615.144-9.052.423-16.159.282-7.137.424-12.59.424-16.206,0-2.58-1.743-2.709-2.091-2.709-1.81,0-4.468.078-8.13.239-3.549.155-6.247.234-8.019.234-.512,0-2.18.215-2.18,2.99,0,3.324.172,8.378.512,15.02.34,6.608.513,11.6.513,14.847,0,.751-.019,1.314-.045,1.737q-.094-.112-.2-.248c-2.972-4.136-5.233-7.335-6.722-9.509l-16.64-24.113c-1.071-1.54-1.82-2.141-2.672-2.141a20.966,20.966,0,0,0-3.766.449c-2.108.417-3.021.556-3.4.6-2.478.247-4.584.371-6.255.371-2.77,0-2.986,1.746-2.986,2.282,0,3.616.142,9.079.424,16.233.279,7.123.421,12.567.421,16.181,0,3.413-.156,8.585-.465,15.373-.312,6.826-.47,12.02-.47,15.438" transform="translate(129.3 10.621)" fill="#fff"/>
        <path id="Path_5578" data-name="Path 5578" d="M305.709,89.971a47.755,47.755,0,0,0,17.917-3.78c.866.289,2.394.713,4.632,1.286a26.154,26.154,0,0,0,5.2,1.08,2.485,2.485,0,0,0,1.9-.729,2.4,2.4,0,0,0,.587-1.876l-.045-.521c-.56-8-.844-14.1-.844-18.124,0-1.475.083-3.753.242-6.775.167-3.11.248-5.372.248-6.909,0-2.065-1.219-2.8-2.36-2.8-.98,0-2.453.073-4.375.217-1.867.137-3.276.209-4.189.209-.844,0-2.132-.086-3.827-.254-2.837-.281-4.556-.37-5.122-.109a2.156,2.156,0,0,0-1.441,2.268,72,72,0,0,0,.588,8.056q.52,4.965.716,7a24.2,24.2,0,0,1-8.846,1.962c-4.445,0-7.768-1.37-10.157-4.184-2.319-2.744-3.5-6.569-3.5-11.37a18.472,18.472,0,0,1,3.412-11.382,11.265,11.265,0,0,1,9.617-4.784,13.707,13.707,0,0,1,6.887,1.778,17.793,17.793,0,0,1,4.153,3.341c1.882,2.046,2.324,2.336,2.965,2.336.9,0,2.113-.445,6.146-5.754,3.739-4.93,4.245-6.569,4.245-7.523a4.406,4.406,0,0,0-.974-2.3A25.793,25.793,0,0,0,318.8,21.4a31.645,31.645,0,0,0-13.275-2.851c-9.643,0-17.6,3.576-23.649,10.625-5.82,6.778-8.773,15.4-8.773,25.631,0,10.027,3.051,18.452,9.064,25.04,6.107,6.72,14.026,10.127,23.537,10.127" transform="translate(153.129 10.4)" fill="#fff"/>
        <path id="Path_5579" data-name="Path 5579" d="M129.366,73.289q-3.612-.1-7.555-.1-6.679,0-8.637.251c-.537.067-.787.261-.754.577l.025.353q.679,8.685.677,16.57,0,2.786-.087,8.372t-.087,8.373a.643.643,0,0,0,.729.729q1.529,0,4.595.087t4.593.089c.353,0,.527-.194.527-.577q0-1.131-.225-3.415t-.226-3.44q0-.929,1.078-.929,1,0,3.026.112t3.026.114a11.728,11.728,0,0,0,9.413-3.992,14.7,14.7,0,0,0,3.19-9.842,12.876,12.876,0,0,0-3.716-9.59,13.736,13.736,0,0,0-9.592-3.741M127.208,92.52q-4.518,0-4.52-.5,0-.777-.061-2.3t-.064-2.3a40.8,40.8,0,0,1,.176-5.8q.2-.454,4.219-.453,5.7,0,5.7,5.849,0,5.5-5.448,5.5" transform="translate(63.031 41.036)" fill="#fff"/>
        <path id="Path_5580" data-name="Path 5580" d="M164.871,81.746c0,.014.012.019.012.034,0-.055,0-.056-.012-.034" transform="translate(92.441 45.827)" fill="#fff"/>
        <path id="Path_5581" data-name="Path 5581" d="M174.564,99.7q-1.306,0-3.93.239t-3.955.239h-3.664q-2.788-.176-3.213-1.13a7.346,7.346,0,0,1-.251-2.46c0-.955.008-1.473.025-1.558.117-.334.518-.5,1.2-.5h2.661q5.1,0,6.528.151l2.26.251c.484,0,.727-.169.727-.5q0-2.009.2-4.017c.254-2.467.4-3.75.44-3.875a.515.515,0,0,0-.591-.543,12.562,12.562,0,0,0-1.355.1l-1.381.126q-3.24.173-6.4.176c-.317,0-.719.011-1.2.037s-.812.037-.979.037a2.152,2.152,0,0,1-1.631-.478,3.534,3.534,0,0,1-.5-2.26,7.931,7.931,0,0,1,.125-1.932q.3-.627,1.632-.629,5.324,0,12,.554c.253.016.428.023.528.023q.5,0,.5-.526,0-.627-.264-3.552t-.389-3.5q-.2-.979-1.506-.98-1.833,0-5.523.1t-5.523.1q-1.859,0-5.587-.1t-5.586-.1c-.453,0-.662.194-.627.577l.025.353q.2,3.991.276,6,.3,7.807.3,10.669,0,2.812-.314,8.448t-.314,8.45q0,.728.83.727,1.906,0,5.723.027t5.75.023q8.863,0,10.7.251a6.217,6.217,0,0,0,.754.076.931.931,0,0,0,.827-.478,15.05,15.05,0,0,0,.8-3.741,32.494,32.494,0,0,0,.428-3.966c0-.6-.186-.905-.552-.905" transform="translate(83.714 41.036)" fill="#fff"/>
        <path id="Path_5582" data-name="Path 5582" d="M210.714,77.314q0-.552.05-1.884.051-1.206.051-1.882c-.017-.286-.051-.448-.1-.49a1.37,1.37,0,0,0-.577-.062q-.026,0-3.288.25-6.077.48-8.336.478a101.468,101.468,0,0,1-12.027-.526c-.2-.017-.317-.027-.351-.027q-.426,0-.6,1.884-.1,1.18-.175,2.36-.052.377-.453,2.133a14.449,14.449,0,0,0-.351,1.934c0,.167.133.251.4.251q2.987,0,8.009-.5.2,6.78.2,8.737,0,2.964-.25,8.888t-.251,8.888a.736.736,0,0,0,.7.777,34.517,34.517,0,0,0,4.545.2,36,36,0,0,0,4.418-.2,3.076,3.076,0,0,0,.7-.125c.15-.084.225-.284.225-.6q0-2.964-.237-8.913t-.24-8.913q0-2.51.151-8.862,6.6.375,7.557.376.552,0,.552-.5a15.013,15.013,0,0,0-.164-1.82,14.981,14.981,0,0,1-.162-1.845" transform="translate(103.477 40.929)" fill="#fff"/>
        <rect id="Rectangle_24" data-name="Rectangle 24" width="153.054" height="3.735" transform="translate(0 128.861)" fill="#fff"/>
        <rect id="Rectangle_25" data-name="Rectangle 25" width="153.054" height="3.735" transform="translate(337.107 128.861)" fill="#fff"/>
      </g>
    </g>
  </g>
</svg>
