<svg id="m2_close" xmlns="http://www.w3.org/2000/svg" xmlns:xlink="http://www.w3.org/1999/xlink" width="20" height="21.333" viewBox="0 0 20 21.333">
  <defs>
    <clipPath id="clip-path">
      <rect id="矩形_94" data-name="矩形 94" width="20" height="21.333" fill="none"/>
    </clipPath>
  </defs>
  <g id="组_57" data-name="组 57" transform="translate(0)" clip-path="url(#clip-path)">
    <path id="路径_5546" data-name="路径 5546" d="M11.748,10.833l7.9-8.578a1.368,1.368,0,0,0,0-1.84,1.271,1.271,0,0,0-1.88,0L10,8.849,2.236.415A1.288,1.288,0,0,0,1.3,0,1.286,1.286,0,0,0,.356.416a1.368,1.368,0,0,0,0,1.841l7.9,8.577-7.9,8.578a1.365,1.365,0,0,0,0,1.838,1.271,1.271,0,0,0,1.882,0L10,12.818l7.763,8.432a1.271,1.271,0,0,0,1.882,0,1.369,1.369,0,0,0,0-1.841Z" transform="translate(0)" fill="#878787"/>
  </g>
</svg>
